<svg
   width="24px"
   height="24px"
   viewBox="0 0 1920 1080"
   version="1.1"
   id="svg1"
   sodipodi:docname="dibujo.svg"
   inkscape:version="1.3.2 (091e20ef0f, 2023-11-25)"
   xmlns:inkscape="http://www.inkscape.org/namespaces/inkscape"
   xmlns:sodipodi="http://sodipodi.sourceforge.net/DTD/sodipodi-0.dtd"
   xmlns="http://www.w3.org/2000/svg"
   xmlns:svg="http://www.w3.org/2000/svg">
  <sodipodi:namedview
     id="namedview1"
     pagecolor="#ffffff"
     bordercolor="#000000"
     borderopacity="0.25"
     inkscape:showpageshadow="2"
     inkscape:pageopacity="0.0"
     inkscape:pagecheckerboard="0"
     inkscape:deskcolor="#d1d1d1"
     inkscape:document-units="px"
     inkscape:zoom="0.2947377"
     inkscape:cx="710.8015"
     inkscape:cy="522.49847"
     inkscape:window-width="1007"
     inkscape:window-height="560"
     inkscape:window-x="1"
     inkscape:window-y="0"
     inkscape:window-maximized="0"
     inkscape:current-layer="g11" />
  <defs
     id="defs1">
    <linearGradient
       id="swatch1"
       inkscape:swatch="solid">
      <stop
         style="stop-color:#ffffff;stop-opacity:1;"
         offset="0"
         id="stop1" />
    </linearGradient>
  </defs>
  <g
     inkscape:label="Capa 1"
     inkscape:groupmode="layer"
     id="layer1">
    <g
       id="g11">
      <g
         id="g12"
         transform="matrix(2.4716976,0,0,2.9821308,-879.05994,-437.53544)">
        <rect
           style="fill:#000000;stroke-width:1.08211"
           id="rect1"
           width="776.91876"
           height="252.63231"
           x="355.24347"
           y="148.84782" />
        <g
           id="g1"
           transform="translate(-15.267813,-59.374827)">
          <ellipse
             style="fill:#ffffff;fill-opacity:1;stroke:#000000;stroke-width:32.5592;stroke-dasharray:none;stroke-opacity:1"
             id="path1"
             cx="1072.3379"
             cy="518.84161"
             rx="33.720409"
             ry="32.562038" />
          <ellipse
             style="fill:#ffffff;fill-opacity:1;stroke:#000000;stroke-width:32.5592;stroke-dasharray:none;stroke-opacity:1"
             id="path1-5"
             cx="975.58997"
             cy="518.84161"
             rx="33.720409"
             ry="32.562038" />
          <ellipse
             style="fill:#ffffff;fill-opacity:1;stroke:#000000;stroke-width:32.5592;stroke-dasharray:none;stroke-opacity:1"
             id="path1-9"
             cx="876.75397"
             cy="518.84161"
             rx="33.720409"
             ry="32.562038" />
        </g>
        <rect
           style="fill:#000000;fill-opacity:1;stroke-width:0.950238"
           id="rect2"
           width="307.05264"
           height="37.32132"
           x="787.14099"
           y="398.65958" />
        <rect
           style="fill:#000000;fill-opacity:1;stroke-width:0.910259"
           id="rect3"
           width="28.839201"
           height="49.196285"
           x="787.14056"
           y="424.10593" />
        <path
           style="fill:#000000;fill-opacity:1"
           id="path4"
           d="m 924.42265,445.54995 c -0.0665,-3.56164 -0.93435,-6.88789 -3.33401,-9.56707 -4.62596,-2.42826 -9.06861,-5.24348 -13.87788,-7.28479 -0.49513,-0.21016 -0.95739,0.49628 -1.40183,0.79928 -3.10765,2.11866 -4.06551,5.74911 -5.3948,9.07808 -0.3972,1.12947 -0.78686,2.26162 -1.1916,3.38841 -0.46799,1.30288 -1.18166,3.31658 -1.814,4.64378 -0.16657,0.3496 -0.91494,0.81013 -0.58093,1.00609 13.3481,7.83137 11.2538,10.85195 14.11582,5.08325 1.06546,-1.39985 2.23762,-9.74652 2.90688,-10.12452 -4.30201,-1.69251 -8.32959,-4.4232 -12.90602,-5.07754 -1.08242,-0.15476 0.19785,2.17824 0.26236,3.26975 0.27463,4.64661 0.0749,9.26201 0.12329,13.9074 0.91121,5.84516 0.13242,2.55192 13.79677,7.64106 0.4595,0.17113 2.12617,-4.30956 2.23504,-4.59594 0,0 -12.75921,-7.10982 -12.75921,-7.10982 v 0 c -0.44606,1.11597 -0.67981,1.89633 -1.35659,2.8829 -0.18108,0.26398 -0.91634,0.52576 -0.65149,0.70556 5.48809,3.7258 17.28717,9.82451 11.71653,6.93662 -0.81401,-4.57876 -0.56475,-9.31956 -0.438,-13.95326 0.0288,-1.05182 0.87853,-2.44283 0.10389,-3.15495 -3.89226,-3.57812 -8.77509,-5.89987 -13.16264,-8.8498 -0.72778,3.43559 -0.88904,7.04009 -2.5984,10.20806 -3.27163,5.32634 -1.86314,2.10178 11.47504,9.48471 0.37869,0.20961 0.29275,-0.81492 0.42226,-1.22792 0.8552,-2.72733 1.53602,-5.5111 2.60183,-8.17064 1.05113,-2.40819 1.42203,-3.62031 2.8996,-5.72519 0.62349,-0.88819 1.43133,-1.62722 2.44345,-2.04455 0.32515,-0.13407 1.3294,0.0138 1.0389,-0.18443 -3.75353,-2.56199 -7.77342,-4.71009 -11.66013,-7.06513 2.83235,1.84865 4.04486,4.96877 3.67093,8.3163 z" />
        <path
           style="fill:#000000;fill-opacity:1"
           id="path5"
           d="m 1015.928,447.02845 c -1.0525,-2.84586 -1.3026,-5.89991 -1.5266,-8.90175 -0.1966,-6.71247 4.4335,-2.51223 -13.6823,-7.56037 -0.231,-0.0644 -0.6615,5.42508 -0.7034,5.90937 -0.18294,10.96039 6.0243,10.23447 16.5996,15.41065 2.0647,-1.25609 2.6394,-3.61141 3.5631,-5.69023 0,0 -12.7437,-7.18123 -12.7437,-7.18123 v 0 c -0.6886,1.54125 -1.0981,3.68788 -2.8702,4.27193 3.9452,2.3491 7.9538,4.59472 11.8355,7.0473 0.3463,0.21882 -0.849,-0.0874 -1.1869,-0.31911 -0.4524,-0.31028 -0.7981,-0.77013 -1.0841,-1.23829 -1.0209,-1.67126 -1.2456,-3.70082 -1.2747,-5.60476 0.1719,-1.64253 0.2206,-2.4898 0.532,-4.07956 0.087,-0.44136 0.6999,-1.06153 0.3248,-1.30955 -4.1743,-2.75967 -8.8992,-4.59567 -13.1791,-7.18859 -0.2209,-0.13387 0.5068,-0.59046 0.6698,-0.39004 0.2901,0.3566 0.087,0.91528 0.1298,1.37292 0.1819,3.0523 0.432,6.10769 1.0787,9.10286 z" />
        <path
           style="fill:#000000;fill-opacity:1"
           id="path6"
           d="m 821.23212,451.13224 c 1.86174,-2.36059 3.65696,-4.76882 5.44138,-7.19854 0,0 -12.47062,-7.39314 -12.47062,-7.39314 v 0 c -1.77644,2.36256 -3.59433,4.69606 -5.6508,6.82134 z" />
        <path
           style="fill:#000000;fill-opacity:1"
           id="path7"
           d="m 816.11184,429.8926 c -0.33098,0.0122 -0.66195,0.0244 -0.99293,0.0366 0,0 11.98906,8.71057 11.98906,8.71057 v 0 c 0.36453,0.0122 0.72905,0.0244 1.09357,0.0366 z" />
        <path
           style="fill:#000000;fill-opacity:1"
           id="path8"
           d="m 824.33365,452.33564 c -0.0445,-3.50992 0.78572,-7.01315 1.40036,-10.46039 0.14839,-0.86148 0.29679,-1.72296 0.44518,-2.58444 0,0 -12.69159,-6.74334 -12.69159,-6.74334 v 0 c -0.14816,0.85043 -0.29631,1.70087 -0.44446,2.5513 -0.73186,3.46691 -1.63754,6.93278 -2.02442,10.45258 z" />
        <rect
           style="fill:#000000;fill-opacity:1"
           id="rect8"
           width="220.53506"
           height="20.357084"
           x="568.30194"
           y="434.28445" />
        <rect
           style="fill:#000000;fill-opacity:1;stroke-width:0.794155"
           id="rect9"
           width="20.357084"
           height="62.76767"
           x="553.03412"
           y="391.87341" />
        <rect
           style="fill:#000000;fill-opacity:1;stroke-width:1.19293"
           id="rect10"
           width="16.964235"
           height="94.151512"
           x="453.7933"
           y="391.87387" />
        <rect
           style="fill:#000000;fill-opacity:1"
           id="rect11"
           width="53.437344"
           height="16.964235"
           x="417.26801"
           y="469.41299" />
      </g>
    </g>
  </g>
</svg>
